<?xml version="1.0"?><svg width="640" height="480" xmlns="http://www.w3.org/2000/svg">
 <title>yellow duck</title>
 <metadata id="metadata3595">image/svg+xml</metadata>
 <g>
  <title>Layer 1</title>
  <g externalResourcesRequired="false" id="layer1">
   <g externalResourcesRequired="false" id="g3628">
    <path id="path3297" d="m526.062439,90.870438c-22.494507,0 -40.435669,18.249771 -40.435669,40.744308l0,47.843674c9.510803,4.69902 20.290222,0.40802 31.484314,0.40802c40.784058,0 73.77179,-27.831253 73.77179,-70.784561c0,-6.264008 -0.831543,-12.374725 -2.160583,-18.211441l-62.659851,0z" stroke-miterlimit="4" stroke-linejoin="round" stroke-width="4" stroke="#000000" fill="#ff7f00"/>
    <path id="path2278" d="m403.21228,13.70324c-59.991699,0 -108.651428,50.079608 -108.651428,111.738189c0,35.562294 16.141388,67.200661 41.361633,87.661949c-14.919617,-1.553879 -30.183594,-2.469376 -45.682953,-2.469376c-22.367645,0 -44.180695,2.074936 -65.437912,5.247437c-17.868225,-37.380493 -59.490982,-69.48378 -93.877106,-79.299286c-46.543274,51.337906 -55.646263,105.134933 -55.205788,153.092133c0.51207,55.75885 16.644096,99.170074 39.505424,132.706665c52.968704,29.77597 116.611694,47.226318 184.892792,47.226318c57.406097,0 111.419128,-12.352844 158.655792,-33.953674c30.20578,-36.285736 48.461029,-82.711517 48.461029,-133.34491c0,-36.14267 -9.285278,-70.053101 -25.619568,-99.700058c18.704834,-20.066849 30.249512,-47.204544 30.249512,-77.167198c0,-61.658581 -48.659607,-111.738189 -108.651428,-111.738189z" stroke-miterlimit="4" stroke-linejoin="round" stroke-width="6" stroke="#000000" fill="#ffff00"/>
    <path d="m448.934479,94.796463c0,9.73365 -8.242554,17.624313 -18.410278,17.624313c-10.167755,0 -18.410309,-7.890663 -18.410309,-17.624313c0,-9.73365 8.242554,-17.624336 18.410309,-17.624336c10.167725,0 18.410278,7.890671 18.410278,17.624336z" id="path3307" stroke-miterlimit="4" stroke-linejoin="round" stroke-width="2" stroke="#000000" fill="#000000"/>
    <ellipse ry="3" rx="3" id="svg_4" cy="90" cx="438" stroke-linecap="null" stroke-linejoin="round" stroke-dasharray="null" stroke-width="2" stroke="#ffffff" fill="#ffffff"/>
   </g>
  </g>
 </g>
</svg>